<svg id="图层_1" data-name="图层 1" xmlns="http://www.w3.org/2000/svg" xmlns:xlink="http://www.w3.org/1999/xlink" viewBox="0 0 500 300"><defs><style>.cls-1{fill:url(#未命名的渐变_50);}.cls-2{fill:url(#未命名的渐变_35);}.cls-3{fill:url(#未命名的渐变_35-2);}.cls-4{fill:url(#未命名的渐变_35-3);}.cls-5{fill:#c7cce0;}.cls-6{fill:#e2e4ed;}.cls-7{fill:url(#未命名的渐变_50-2);}.cls-8{fill:url(#未命名的渐变_20);}.cls-9{fill:url(#未命名的渐变_20-2);}.cls-10{fill:url(#未命名的渐变_20-3);}.cls-11{fill:url(#未命名的渐变_20-4);}.cls-12{fill:url(#未命名的渐变_20-5);}.cls-13{fill:none;stroke:#c7cce0;stroke-linecap:round;stroke-miterlimit:10;stroke-width:2px;}</style><linearGradient id="未命名的渐变_50" x1="250" y1="284.22" x2="250" y2="191.22" gradientUnits="userSpaceOnUse"><stop offset="0" stop-color="#fff9ef" stop-opacity="0"/><stop offset="0.17" stop-color="#fef8ef" stop-opacity="0.02"/><stop offset="0.32" stop-color="#fbf5ee" stop-opacity="0.06"/><stop offset="0.46" stop-color="#f5f1ec" stop-opacity="0.14"/><stop offset="0.6" stop-color="#edebea" stop-opacity="0.26"/><stop offset="0.74" stop-color="#e3e2e7" stop-opacity="0.4"/><stop offset="0.87" stop-color="#d6d8e4" stop-opacity="0.58"/><stop offset="0.99" stop-color="#c8cde0" stop-opacity="0.79"/><stop offset="1" stop-color="#c7cce0" stop-opacity="0.8"/></linearGradient><linearGradient id="未命名的渐变_35" x1="-3.46" y1="-701.8" x2="52.32" y2="-757.58" gradientTransform="translate(49.07 854.91)" xlink:href="#未命名的渐变_50"/><linearGradient id="未命名的渐变_35-2" x1="275.14" y1="-896.96" x2="330.92" y2="-952.74" gradientTransform="translate(105.47 1109.07)" xlink:href="#未命名的渐变_50"/><linearGradient id="未命名的渐变_35-3" x1="196.65" y1="-1000.91" x2="252.43" y2="-1056.68" gradientTransform="translate(201.96 1084.01)" xlink:href="#未命名的渐变_50"/><linearGradient id="未命名的渐变_50-2" x1="241.17" y1="183.5" x2="241.17" y2="176" xlink:href="#未命名的渐变_50"/><linearGradient id="未命名的渐变_20" x1="277.5" y1="107.33" x2="272.5" y2="98.67" gradientUnits="userSpaceOnUse"><stop offset="0" stop-color="#e2e4ed" stop-opacity="0"/><stop offset="0.01" stop-color="#e2e4ed" stop-opacity="0.1"/><stop offset="0.04" stop-color="#e2e4ed" stop-opacity="0.23"/><stop offset="0.06" stop-color="#e2e4ed" stop-opacity="0.35"/><stop offset="0.09" stop-color="#e2e4ed" stop-opacity="0.44"/><stop offset="0.13" stop-color="#e2e4ed" stop-opacity="0.51"/><stop offset="0.17" stop-color="#e2e4ed" stop-opacity="0.56"/><stop offset="0.23" stop-color="#e2e4ed" stop-opacity="0.59"/><stop offset="0.39" stop-color="#e2e4ed" stop-opacity="0.6"/><stop offset="0.65" stop-color="#d8dbe8" stop-opacity="0.75"/><stop offset="1" stop-color="#c7cce0"/></linearGradient><linearGradient id="未命名的渐变_20-2" x1="233.5" y1="120.33" x2="228.5" y2="111.67" xlink:href="#未命名的渐变_20"/><linearGradient id="未命名的渐变_20-3" x1="225.25" y1="145.53" x2="221.75" y2="139.47" xlink:href="#未命名的渐变_20"/><linearGradient id="未命名的渐变_20-4" x1="260.23" y1="154.77" x2="257.75" y2="150.47" xlink:href="#未命名的渐变_20"/><linearGradient id="未命名的渐变_20-5" x1="258.75" y1="138.86" x2="250.25" y2="124.14" xlink:href="#未命名的渐变_20"/></defs><title>404缺省页</title><ellipse class="cls-1" cx="250" cy="237.72" rx="146" ry="46.5"/><rect class="cls-2" x="59.5" y="75.22" width="28" height="100" rx="14" ry="14" transform="translate(110.07 -15.3) rotate(45)"/><rect class="cls-3" x="394.5" y="134.22" width="28" height="100" rx="14" ry="14" transform="translate(249.91 -234.9) rotate(45)"/><rect class="cls-4" x="412.5" y="5.22" width="28" height="100" rx="14" ry="14" transform="translate(163.97 -285.41) rotate(45)"/><path class="cls-5" d="M144.63,93.23l28.59-6.18,9.45,60.37,13-2.31,3.06,20.15-13,2.14,3,18.45L162.76,190l-3-17.93-42.9,6.86-3.55-21.41ZM154,111.84l-19.89,46.36,25.52-4.2Z"/><path class="cls-6" d="M141.51,92.48l28.28-4.66,9.88,60,13-2.14,2.84,17.24-13,2.14,3,18.45-23.3,3.84-3-18.45L116.31,176l-3.48-21.14Zm9.23,17-19.89,46.36,25.52-4.2Z"/><path class="cls-5" d="M336.3,92.18l27.83,4.18-12.05,57.53,12.52,2.36-4.11,19.17-12.42-2.5-3.55,17.63-24.85-5.15L323,168.25l-40.93-8.43,4.09-20.47Zm2.11,19.94-33.68,34.94L329.12,152Z"/><path class="cls-6" d="M333.75,90.44l27,5.44-11.54,57.34,12.42,2.5-3.32,16.47-12.42-2.5-3.55,17.63-22.27-4.48,3.55-17.63-41-8.25,4.07-20.21Zm2.51,18.45-33.68,34.94L327,148.74Z"/><ellipse class="cls-7" cx="241.17" cy="179.75" rx="20.21" ry="3.75"/><circle class="cls-6" cx="241.17" cy="130" r="31"/><circle class="cls-8" cx="275" cy="103" r="5"/><circle class="cls-9" cx="231" cy="116" r="5"/><circle class="cls-10" cx="223.5" cy="142.5" r="3.5"/><path class="cls-11" d="M259.5,150a3.5,3.5,0,0,0-2,6.36,31.12,31.12,0,0,0,5.27-4.12A3.49,3.49,0,0,0,259.5,150Z"/><circle class="cls-12" cx="254.5" cy="131.5" r="8.5"/><path class="cls-13" d="M272.33,121.26c5.73-.13,9.38.65,9.85,2.44,1.14,4.27-16.24,12.63-38.82,18.69s-41.82,7.5-43,3.23c-.52-1.93,2.77-4.71,8.63-7.73"/></svg>